<svg width="698" height="522" viewBox="0 0 698 522" fill="none" xmlns="http://www.w3.org/2000/svg">
<path d="M169.478 435.343H155.722V448.501H152.301V419.814H155.722V432.322H169.478V419.814H172.874V448.501H169.478V435.343Z" fill="white"/>
<path d="M181.684 434.17C181.684 429.376 182.689 425.706 184.705 423.159C186.734 420.613 189.623 419.339 193.368 419.339C195.378 419.339 197.12 419.701 198.587 420.413C200.066 421.112 201.289 422.111 202.257 423.409C203.237 424.707 203.961 426.268 204.429 428.078C204.891 429.894 205.128 431.923 205.128 434.17C205.128 438.951 204.104 442.621 202.057 445.18C200.022 447.727 197.126 449 193.368 449C191.371 449 189.636 448.638 188.175 447.926C186.709 447.215 185.491 446.204 184.53 444.905C183.563 443.607 182.845 442.053 182.383 440.237C181.915 438.427 181.684 436.404 181.684 434.17ZM185.279 434.17C185.279 435.755 185.435 437.253 185.754 438.664C186.066 440.081 186.553 441.329 187.202 442.409C187.863 443.495 188.706 444.356 189.723 445.005C190.753 445.642 191.97 445.954 193.368 445.954C195.896 445.954 197.887 444.999 199.336 443.083C200.784 441.154 201.508 438.183 201.508 434.17C201.508 432.609 201.345 431.111 201.033 429.676C200.715 428.246 200.222 426.992 199.56 425.906C198.892 424.826 198.044 423.971 197.014 423.334C195.996 422.685 194.779 422.36 193.368 422.36C190.853 422.36 188.874 423.328 187.426 425.257C185.991 427.173 185.279 430.144 185.279 434.17Z" fill="white"/>
<path d="M230.883 448.501H213.905V419.814H217.326V445.48H230.883V448.501Z" fill="white"/>
<path d="M244.43 437.116L234.967 419.814H238.937L245.653 432.347L246.352 434.869H246.402L247.151 432.272L253.567 419.814H257.213L247.825 437.066V448.501H244.43V437.116Z" fill="white"/>
<path d="M295.146 435.343H281.389V448.501H277.969V419.814H281.389V432.322H295.146V419.814H298.541V448.501H295.146V435.343Z" fill="white"/>
<path d="M309.324 419.814H312.719V448.501H309.324V419.814Z" fill="white"/>
<path d="M340.454 448.501H323.476V419.814H326.897V445.48H340.454V448.501Z" fill="white"/>
<path d="M364.661 448.501H347.684V419.814H351.104V445.48H364.661V448.501Z" fill="white"/>
<path d="M384.687 434.17C384.687 429.376 385.692 425.706 387.708 423.159C389.736 420.613 392.626 419.339 396.371 419.339C398.381 419.339 400.123 419.701 401.589 420.413C403.069 421.112 404.292 422.111 405.259 423.409C406.239 424.707 406.963 426.268 407.432 428.078C407.893 429.894 408.131 431.923 408.131 434.17C408.131 438.951 407.107 442.621 405.06 445.18C403.025 447.727 400.129 449 396.371 449C394.374 449 392.639 448.638 391.178 447.926C389.711 447.215 388.494 446.204 387.533 444.905C386.566 443.607 385.848 442.053 385.386 440.237C384.918 438.427 384.687 436.404 384.687 434.17ZM388.282 434.17C388.282 435.755 388.438 437.253 388.756 438.664C389.069 440.081 389.555 441.329 390.204 442.409C390.866 443.495 391.709 444.356 392.726 445.005C393.756 445.642 394.973 445.954 396.371 445.954C398.899 445.954 400.89 444.999 402.338 443.083C403.786 441.154 404.51 438.183 404.51 434.17C404.51 432.609 404.348 431.111 404.036 429.676C403.718 428.246 403.225 426.992 402.563 425.906C401.895 424.826 401.046 423.971 400.016 423.334C398.999 422.685 397.782 422.36 396.371 422.36C393.856 422.36 391.877 423.328 390.429 425.257C388.994 427.173 388.282 430.144 388.282 434.17Z" fill="white"/>
<path d="M416.908 419.814H432.537V422.86H420.328V432.647H431.713V435.668H420.328V448.501H416.908V419.814Z" fill="white"/>
<path d="M453.162 445.43L467.643 424.483L469.365 422.86H453.162V419.814H472.436V422.885L457.881 443.957L456.158 445.48H472.436V448.501H453.162V445.43Z" fill="white"/>
<path d="M481.238 419.814H484.633V448.501H481.238V419.814Z" fill="white"/>
<path d="M494.217 434.17C494.217 429.376 495.222 425.706 497.238 423.159C499.266 420.613 502.156 419.339 505.901 419.339C507.911 419.339 509.653 419.701 511.119 420.413C512.599 421.112 513.822 422.111 514.79 423.409C515.769 424.707 516.493 426.268 516.962 428.078C517.423 429.894 517.661 431.923 517.661 434.17C517.661 438.951 516.637 442.621 514.59 445.18C512.555 447.727 509.659 449 505.901 449C503.904 449 502.169 448.638 500.708 447.926C499.241 447.215 498.024 446.204 497.063 444.905C496.096 443.607 495.378 442.053 494.916 440.237C494.448 438.427 494.217 436.404 494.217 434.17ZM497.812 434.17C497.812 435.755 497.968 437.253 498.286 438.664C498.599 440.081 499.085 441.329 499.735 442.409C500.396 443.495 501.239 444.356 502.256 445.005C503.286 445.642 504.503 445.954 505.901 445.954C508.429 445.954 510.42 444.999 511.868 443.083C513.316 441.154 514.04 438.183 514.04 434.17C514.04 432.609 513.878 431.111 513.566 429.676C513.248 428.246 512.755 426.992 512.093 425.906C511.425 424.826 510.576 423.971 509.546 423.334C508.529 422.685 507.312 422.36 505.901 422.36C503.386 422.36 501.407 423.328 499.959 425.257C498.524 427.173 497.812 430.144 497.812 434.17Z" fill="white"/>
<path d="M531.606 429.726L529.409 425.606H529.234L529.634 429.726V448.501H526.438V419.365H528.261L541.967 438.514L544.115 442.434H544.314L543.865 438.514V419.814H547.061V448.95H545.263L531.606 429.726Z" fill="white"/>
<path d="M78.2154 166.984C104.132 167.763 133.404 167.059 159.609 167.059L318.788 167.053L514.938 167.069C549.519 167.071 585.687 167.6 620.171 166.926L620.208 354.885C620.208 383.395 619.706 413.698 620.366 442.055C609.485 442.38 595.969 442.204 585.112 442.004C585.2 437.975 585.13 433.675 585.135 429.622C589.048 430.012 602.927 429.641 607.61 429.715L607.629 191.62L607.74 179.631L90.7597 179.646L90.7791 429.724C98.2681 429.738 105.757 429.65 113.244 429.455L113.288 442.009C101.611 442.199 89.7325 441.888 78.0803 442.264C78.4577 421.474 78.0668 399.445 78.0627 378.534L78.046 244.881C77.9489 218.915 78.0056 192.949 78.2154 166.984Z" fill="white"/>
<path d="M140.585 227.638C140.992 227.61 141.401 227.592 141.81 227.587C165.173 227.039 162.614 245.708 163.141 263.447C163.438 273.429 163.112 283.661 163.081 293.666L196.509 293.685C196.818 277.046 195.856 261.841 197.3 244.607C199.027 223.975 224.315 221.993 230.94 237.36C234.569 245.777 233.511 269.956 233.515 280.449L233.52 320.826L233.513 354.318C233.506 364.88 234.344 380.452 229.953 390.42C228.08 394.672 222.484 396.826 218.131 397.959C217.065 398.024 215.997 398.061 214.929 398.066C193.74 398.048 196.47 373.915 196.494 359.026L196.573 329.55L163.1 329.605C163.131 343.12 165.111 380.373 159.051 390.875C157.158 394.157 154.255 396.432 150.561 397.374C145.494 398.67 138.985 398.363 134.444 395.564C130.17 392.927 128.485 388.409 127.389 383.757C125.028 373.72 125.93 362.062 125.922 351.751L125.925 311.188L125.911 272.863C125.91 263.963 125.779 255.267 126.494 246.376C127.259 236.845 130.658 229.806 140.585 227.638Z" fill="white"/>
<path d="M497.898 276.433C505.552 275.481 514.868 276.293 522.68 276.057C530.497 275.968 538.713 276.159 546.479 276.117C571.019 275.978 579.096 288.439 564.187 309.27C550.452 328.454 537.037 348.399 522.81 367.206C533.24 367.211 562.766 365.28 568.012 371.691C579.518 385.749 568.582 396.562 554.295 397.806C535.496 398.948 513.592 398.54 494.728 397.472C481.114 396.701 475.089 386.042 481.439 373.966C486.897 363.585 494.426 354.068 501.119 344.388C510.013 331.95 518.712 318.955 528.014 306.814C515.537 306.838 502.396 307.469 490.086 305.756C484.14 304.934 478.482 300.194 478.199 293.88C477.595 280.235 486.363 277.245 497.898 276.433Z" fill="white"/>
<path d="M359.254 227.685C373.495 226.793 379.33 233.196 380.397 247.407C381.135 257.184 380.899 267.022 380.903 276.823L380.908 314.609V350.497C380.908 362.174 381.92 379.505 377.222 390.54C375.44 394.719 369.861 396.678 365.678 397.908C340.729 400.508 343.807 375.558 343.788 358.594L343.769 321.109L343.765 273.508C343.769 264.195 343.547 254.923 344.183 245.624C344.865 235.689 349.298 229.528 359.254 227.685Z" fill="white"/>
<path d="M430.254 227.694C444.031 226.7 450.669 232.499 451.657 246.306C452.293 255.155 452.121 263.781 452.126 272.635L452.135 315.719L452.126 353.534C452.121 361.807 452.219 369.862 451.713 378.13C451.021 389.412 447.781 395.499 436.451 398.08C411.571 398.92 415.062 374.96 415.048 356.978L415.034 318.797L415.039 274.956C415.039 265.355 414.867 255.907 415.582 246.325C416.301 236.636 420.154 229.532 430.254 227.694Z" fill="white"/>
<path d="M343.078 73.0917C398.848 71.5545 444.314 89.3861 487.431 123.749C483.356 128.966 478.226 134.651 473.863 139.722C437.922 110.218 402.613 96.4712 356.102 93.7632C305.361 92.7088 263.568 107.726 224.468 139.819C221.148 135.242 214.95 128.668 211.006 123.569C217.931 118.834 223.709 113.509 231.509 108.442C266.652 85.6185 301.45 74.7217 343.078 73.0917Z" fill="#DAB2FF"/>
<path d="M285.502 276.377C294.582 276.247 302.197 278.541 304.286 288.666C307.639 304.902 305.962 322.312 306.304 338.9C306.584 352.443 306.373 366.589 305.45 380.094C304.393 391.093 300.657 395.527 290.298 398.057C262.801 399.612 270.393 368.321 269.156 350.339C269.667 344.522 268.488 337.024 269.154 331.383C271.168 314.308 261.71 279.483 285.502 276.377Z" fill="white"/>
<path d="M338.35 107.977C370.144 105.217 393.408 112.786 421.342 126.026C419.583 129.784 417.304 133.665 415.229 137.279C396.397 126.85 379.729 122.027 358.368 120.314C327.952 118.661 309.79 124.128 283.17 137.165C281.668 134.037 278.813 129.394 276.926 126.568C298.286 115.435 313.885 109.914 338.35 107.977Z" fill="#DAB2FF"/>
<path d="M285.928 227.035C296.296 225.948 305.581 233.474 306.668 243.846C307.755 254.213 300.234 263.503 289.866 264.594C279.495 265.685 270.204 258.159 269.116 247.783C268.028 237.411 275.556 228.121 285.928 227.035Z" fill="white"/>
</svg>
